<svg width="85" height="58" viewBox="0 0 85 58" fill="none" xmlns="http://www.w3.org/2000/svg">
<path d="M0 41.0263V0.849792H7.05747V41.0263H0Z" fill="black"/>
<path d="M25.1229 11.8797C16.0743 11.8797 9.8125 18.8369 9.8125 26.8001C9.8125 35.6876 16.6246 41.81 25.1932 41.81C33.3253 41.81 40.3821 35.8002 40.3821 26.7809C40.3821 19.1966 34.5346 11.8797 25.1229 11.8797ZM25.0398 18.6879C29.7752 18.6879 33.2607 22.374 33.2607 26.8257C33.2607 31.5458 29.4178 34.9891 25.1676 34.9891C20.1456 34.9891 16.985 31.0087 16.985 26.8385C16.985 22.2675 20.5533 18.6879 25.0398 18.6879Z" fill="black"/>
<path d="M58.1141 11.8797C49.0655 11.8797 42.8037 18.8369 42.8037 26.8001C42.8037 35.6876 49.6158 41.81 58.1844 41.81C66.3165 41.81 73.3733 35.8002 73.3733 26.7809C73.3733 21.4697 71.0732 19.1131 71.0732 19.1131L73.0294 18.4423V12.7145H63.0057C63.0057 12.7145 60.8327 11.8797 58.1141 11.8797ZM58.031 18.6879C62.7664 18.6879 66.2519 22.374 66.2519 26.8257C66.2519 31.5458 62.409 34.9891 58.1588 34.9891C53.1368 34.9891 49.9763 31.0087 49.9763 26.8385C49.9763 22.2675 53.5445 18.6879 58.031 18.6879Z" fill="black"/>
<path d="M66.2021 42.9901C66.2021 47.7102 62.3592 51.1791 58.109 51.1791C53.087 51.1791 49.9137 47.1603 49.9137 42.9901H42.7539C42.7539 51.8775 49.566 58 58.1346 58C66.2667 58 73.3235 52.0094 73.3235 42.9901H66.2021Z" fill="black"/>
<path d="M76.2002 41.0262V12.7145H83.2577V41.0262H76.2002Z" fill="black"/>
<path d="M84.3879 4.67344C84.3879 7.25451 82.2955 9.34688 79.7145 9.34688C77.1334 9.34688 75.041 7.25451 75.041 4.67344C75.041 2.09237 77.1334 0 79.7145 0C82.2955 0 84.3879 2.09237 84.3879 4.67344Z" fill="black"/>
</svg>
